<?xml version="1.0" encoding="utf-8"?>
<!-- Generator: Adobe Illustrator 23.0.2, SVG Export Plug-In . SVG Version: 6.00 Build 0)  -->
<svg version="1.1" id="Layer_1" xmlns="http://www.w3.org/2000/svg" xmlns:xlink="http://www.w3.org/1999/xlink" x="0px" y="0px"
	 viewBox="0 0 128 128" style="enable-background:new 0 0 128 128;" xml:space="preserve">
<style type="text/css">
	.st0{fill:#BDCCD4;stroke:#283538;stroke-width:1.4173;stroke-miterlimit:10;}
	.st1{clip-path:url(#SVGID_1_);}
	.st2{fill:#AD846F;}
	.st3{fill:#A0041E;}
	.st4{fill:#292F33;}
	.st5{fill:#744EAA;}
	.st6{fill:#D99E82;}
	.st7{fill:#DD2E44;}
	.st8{fill:#B39155;}
</style>
<path class="st0" d="M36.69,128.43c0-10.03,8.21-18.24,18.24-18.24h47.13c10.03,0,18.24,8.21,18.24,18.24"/>
<path class="st0" d="M126.39,128.43c0-10.03,8.21-18.24,18.24-18.24h47.13c10.03,0,18.24,8.21,18.24,18.24"/>
<path class="st0" d="M-53,129.19c0-10.03,8.21-18.24,18.24-18.24h47.13c10.03,0,18.24,8.21,18.24,18.24"/>
<g id="g10" transform="matrix(1.25,0,0,-1.25,0,47.5)">
	<g id="g12">
		<g>
			<defs>
				
					<rect id="SVGID_3_" x="-4.32" y="-63.75" transform="matrix(0.993 -0.1184 0.1184 0.993 1.6348 5.6671)" width="105.66" height="105.66"/>
			</defs>
			<clipPath id="SVGID_1_">
				<use xlink:href="#SVGID_3_"  style="overflow:visible;"/>
			</clipPath>
			<g id="g14" class="st1">
				<g id="g20" transform="translate(19.9995,21.0005)">
					<path id="path22" class="st2" d="M25.78-27.77c0,0-5.31-11.83-6.99-16.51s2.74-4.15,4.68-1.68s9.99,10.15,9.73,12.36
						S25.78-27.77,25.78-27.77"/>
				</g>
				<g id="g24" transform="translate(21.6338,13.9795)">
					<path id="path26" class="st3" d="M22.38-36.69c0,0,2.05-2.39,4.11-4.77c2.05-2.38,4.1-4.77-0.33-4.43
						c-4.44,0.33-10.76,5.27-10.76,5.27s0.5,6.66,2.55,4.27S22.38-36.69,22.38-36.69"/>
				</g>
				<g id="g28" transform="translate(8.0005,3)">
					<path id="path30" class="st4" d="M69.02-46.37c-6.1-0.73-11.63,3.63-12.36,9.73c-0.73,6.1,3.63,11.63,9.73,12.36
						c6.1,0.73,11.63-3.63,12.36-9.73S75.12-45.64,69.02-46.37 M65.86-19.86c-8.54-1.02-14.64-8.77-13.62-17.3
						s8.77-14.64,17.3-13.62c8.54,1.02,14.64,8.77,13.62,17.3S74.4-18.84,65.86-19.86"/>
				</g>
				<g id="g32" transform="translate(30,3)">
					<path id="path34" class="st4" d="M-1.57-52.16c-6.1-0.73-11.63,3.63-12.36,9.73s3.63,11.63,9.73,12.36
						c6.1,0.73,11.63-3.63,12.36-9.73S4.53-51.43-1.57-52.16 M-4.73-25.66c-8.54-1.02-14.64-8.77-13.62-17.3s8.76-14.64,17.3-13.62
						c8.54,1.02,14.64,8.77,13.62,17.3S3.8-24.64-4.73-25.66"/>
				</g>
				<g id="g36" transform="translate(23,17)">
					<path id="path38" class="st5" d="M17.2-33.4c0.15-1.22,1.33-2.08,2.66-1.92l23.93,2.85c1.32,0.16,2.27,1.27,2.13,2.49
						c-0.15,1.22-1.33,2.08-2.66,1.92L19.33-30.9C18.01-31.06,17.06-32.17,17.2-33.4"/>
				</g>
				<g id="g40" transform="translate(31,8)">
					<path id="path42" class="st5" d="M-6.1-46.38c0.15-1.22,1.25-2.09,2.47-1.95l24.3,2.9c1.22,0.15,2.09,1.25,1.95,2.47
						c-0.15,1.22-1.25,2.09-2.47,1.95l-24.3-2.9C-5.37-44.05-6.24-45.16-6.1-46.38"/>
				</g>
				<g id="g44" transform="translate(22.2236,20)">
					<path id="path46" class="st5" d="M14.21-30.12l12.98-26.09c0.43-0.86,1.35-1.33,2.26-1.22c0.25,0.03,0.49,0.1,0.73,0.22
						c1.1,0.55,1.55,1.88,1,2.98L18.9-29.56L14.21-30.12z"/>
				</g>
				<g id="g48" transform="translate(30.001,7)">
					<path id="path50" class="st5" d="M-2.63-47.33c-0.41-0.05-0.83,0.02-1.22,0.2c-1.11,0.53-1.58,1.86-1.04,2.97L7.67-18.01
						c0.53,1.11,1.86,1.57,2.97,1.04c1.11-0.53,1.57-1.86,1.04-2.97L-0.88-46.08C-1.23-46.79-1.9-47.24-2.63-47.33"/>
				</g>
				<g id="g52" transform="translate(20,11.2656)">
					<path id="path54" class="st5" d="M28.94-44.54L28.94-44.54c0.48,0.06,0.94,0.27,1.3,0.63l18.03,17.83
						c0.87,0.86,0.88,2.27,0.02,3.15c-0.87,0.87-2.27,0.88-3.14,0.01L28.34-39.54L28.94-44.54z"/>
				</g>
				<g id="g56" transform="translate(7.9995,7)">
					<path id="path58" class="st5" d="M67.97-41.53c-0.93-0.11-1.86,0.37-2.28,1.26l-9.68,20.54l9.21,8.79
						c0.89,0.85,2.3,0.81,3.14-0.07c0.85-0.89,0.82-2.3-0.07-3.14l-6.88-6.57l8.31-17.64c0.52-1.11,0.05-2.44-1.07-2.96
						C68.43-41.44,68.2-41.5,67.97-41.53"/>
				</g>
				<g id="g60" transform="translate(27.3828,18)">
					<path id="path62" class="st4" d="M2.88-33.34c-0.67-0.08-1.32,0.27-1.61,0.89l-2.13,4.51c-0.29,0.61-0.15,1.33,0.32,1.8
						c0.49,0.47,1.22,0.58,1.82,0.27c4.58-2.32,13.48-1.3,13.57-1.29c0.83,0.1,1.59-0.46,1.74-1.28c0.15-0.82-0.36-1.61-1.17-1.82
						L3.07-33.3C3.01-33.32,2.94-33.33,2.88-33.34"/>
				</g>
				<g id="g64" transform="translate(12,19)">
					<path id="path66" class="st4" d="M51.97-28.08c-1.22-0.15-2.33,0.73-2.47,1.95c-0.15,1.22,0.73,2.33,1.95,2.47l11.04,1.32
						c1.22,0.15,2.33-0.73,2.47-1.95c0.15-1.22-0.73-2.33-1.95-2.47L51.97-28.08"/>
				</g>
				<g id="g68" transform="translate(22.999,24.0005)">
					<path id="path70" class="st3" d="M19.15-37.92l5.84,7.42l-9.62,5.57L19.15-37.92z"/>
				</g>
				<g id="g72" transform="translate(20.999,20.0005)">
					<path id="path74" class="st6" d="M16.73-34.45c0,0,7.42-5.84,5.47-8.31c-3.08-3.91,1.58-13.25,1.84-15.46
						c0.26-2.21,4.68-1.68,3.89,4.94c-0.79,6.63,0.63,13.52,0.37,15.72c-0.26,2.21-5.47,8.31-5.47,8.31L16.73-34.45z"/>
				</g>
				<g id="g76" transform="translate(22.999,24.0005)">
					<path id="path78" class="st7" d="M7.95-19.1c0,0-6.36-3-5.84-7.42S15-40.66,15-40.66l8.04,7.68l-7.68,8.04L7.95-19.1z"/>
				</g>
				<g id="g80" transform="translate(11,32)">
					<path id="path82" class="st6" d="M51.76-12.1c0,0-7.15,3.63-6.63-0.79s-6.36-3-8.04-7.68s5.21-6.1,6.89-1.42
						c1.68,4.68,4.15,2.74,4.15,2.74s4.68-1.68,4.42,0.53S54.23-14.05,51.76-12.1"/>
				</g>
				<g id="g84" transform="translate(15.9995,34.0005)">
					<path id="path86" class="st8" d="M35.19-11c0,0,9.1-1.16,7.15-3.63s-1.68-4.68-3.89-4.94C36.24-19.84,35.45-13.21,35.19-11"/>
				</g>
				<g id="g88" transform="translate(13.9995,25.0005)">
					<path id="path90" class="st4" d="M43.97-21.35c-0.53,4.42-0.79,6.63-3.26,8.57c-3.5,2.75-9.36,3.36-15.72,0.37
						c-4.02-1.9-6.1-5.21-12.46-8.21c0,0,12.1-7.52,14.31-7.25c2.21,0.26,4.15,2.74,6.1,5.21s4.15,2.74,4.42,0.53s3-6.36,5.47-8.31
						s7.42-5.84,11.83-5.31c4.42,0.53,4.42,0.53,4.15,2.74s-2.47,1.95-4.68,1.68S44.5-25.77,43.97-21.35"/>
				</g>
				<g id="g92" transform="translate(16.6699,23.666)">
					<path id="path94" class="st6" d="M35.76-23.67c1.08-1.99,2.79-4.18,4.39-5.45c2.47-1.95,7.42-5.84,11.83-5.31
						s4.42,0.53,4.15,2.74s-2.47,1.95-4.68,1.68c-2.01-0.24-8.34,4.59-9.84,8.79L35.76-23.67"/>
				</g>
				<g id="g96" transform="translate(19.9995,8)">
					<path id="path98" class="st7" d="M34.14-47.37c2.47-1.95,4.94-3.89,0.53-4.42s-11.57,3.1-11.57,3.1s-0.79,6.63,1.68,4.68
						s4.42,0.53,4.42,0.53L34.14-47.37z"/>
				</g>
				<g id="g100" transform="translate(11.9995,35.0005)">
					<path id="path102" class="st5" d="M47.76-8.74c4.68-1.68,7.42-5.84,7.68-8.04c0,0-13.52,0.63-15.99,2.57
						C34.51-10.32,43.08-7.06,47.76-8.74"/>
				</g>
			</g>
		</g>
	</g>
</g>
</svg>
